<?xml version="1.0" encoding="UTF-8"?>
<svg width="2161px" height="833px" viewBox="0 0 2161 833" version="1.1" xmlns="http://www.w3.org/2000/svg" xmlns:xlink="http://www.w3.org/1999/xlink">
    <!-- Generator: Sketch 63.1 (92452) - https://sketch.com -->
    <title>Group</title>
    <desc>Created with Sketch.</desc>
    <defs>
        <filter x="-0.5%" y="-1.4%" width="101.0%" height="102.7%" filterUnits="objectBoundingBox" id="filter-1">
            <feOffset dx="2" dy="3" in="SourceAlpha" result="shadowOffsetOuter1"></feOffset>
            <feGaussianBlur stdDeviation="1" in="shadowOffsetOuter1" result="shadowBlurOuter1"></feGaussianBlur>
            <feColorMatrix values="0 0 0 0 0   0 0 0 0 0   0 0 0 0 0  0 0 0 0.5 0" type="matrix" in="shadowBlurOuter1" result="shadowMatrixOuter1"></feColorMatrix>
            <feMerge>
                <feMergeNode in="shadowMatrixOuter1"></feMergeNode>
                <feMergeNode in="SourceGraphic"></feMergeNode>
            </feMerge>
        </filter>
    </defs>
    <g id="Picasso" stroke="none" stroke-width="1" fill="none" fill-rule="evenodd">
        <g id="Group" filter="url(#filter-1)" transform="translate(0.500000, 1.250301)">
            <g id="Picasso-Grand-Hotel" fill="#000189" stroke="#000189" stroke-linejoin="round">
                <path d="M213.726563,147.661809 C229.575521,127.053736 252.166667,108.416366 281.5,91.7496994 C289.5,87.7496994 308.5,77.7496994 336.5,69.7496994 C359.5,62.7496994 390.469503,64.3654571 395.55846,65.6950119 C412.971937,68.3047518 425.175107,72.1530591 432.167969,77.2399337 C478.5,104.749699 473.5,194.749699 458.5,240.749699 C449.5,274.416366 431.5,314.749699 404.5,361.749699 L465.5,347.249699 C469.166667,349.583033 477.267608,352.556348 489.802823,356.169646 C542.605646,339.589592 592.5,269.749699 592.5,224.249699 C596,173.249699 580.5,141.249699 562.42587,117.849333 C535.5,88.2496994 485.5,49.7496994 442.224698,27.3688645 C398.949396,4.98802963 369.5,-6.75030063 310.121094,4.08173062 C274.742188,9.91376187 242.324823,32.9712699 235.193359,39.71259 C196.73112,76.0706629 189.575521,112.053736 213.726563,147.661809 Z" id="Path"></path>
                <path d="M334.5,85.2496994 C293.833333,133.916366 266.833333,188.916366 253.5,250.249699 C254.5,249.583033 252,251.416366 246,255.749699 C186.666667,363.416366 104.666667,553.583033 0,826.249699 C139.666667,625.249699 225.333333,501.583033 257,455.249699 C283.333333,412.916366 306.833333,368.416366 327.5,321.749699 L327.5,314.749699 C379.833333,232.416366 382.166667,155.916366 334.5,85.2496994 Z" id="Path-2"></path>
            </g>
            <g id="i" transform="translate(583.966471, 150.249699)" fill="#000189" stroke="#000189">
                <path d="M66.5335294,308 C89.5335294,292.5 101.533529,282.5 102.033529,281.5 C140.033529,183 94.5335294,130 66.5335294,109.5 C46.0335294,123 39.5335294,127 20.5335294,140.5 C-1.96647056,182 -25.9664706,255.5 66.5335294,308 Z" id="Path"></path>
                <path d="M92.0335294,0 C85.7001961,6.33333333 82.5335294,9.16666667 82.5335294,8.5 L73.0335294,17 C65.0335294,39 68.2001961,56.8333333 82.5335294,70.5 C95.8668628,72.5 104.533529,72.5 108.533529,70.5 C137.866863,49.8333333 132.366863,26.3333333 92.0335294,0 Z" id="Path-2"></path>
            </g>
            <g id="cas" transform="translate(718.491071, 147.249699)" fill="#000189" stroke="#000189">
                <path d="M216.008929,-2.55795385e-13 C245.342262,15.3333333 260.842262,45.8333333 262.508929,91.5 C255.842262,98.1666667 248.008929,101 239.008929,100 C218.675595,110 202.842262,115.333333 191.508929,116 C191.508929,116 184.508929,106.5 170.508929,87.5 C170.508929,87.5 160.16061,87.6132033 149.508929,100 C121.508929,123.5 89.0089286,170.5 60.0089286,216 C155.008929,314.5 260.508929,244.5 283.508929,224.5 C296.008929,200 248.508929,143 344.508929,79.5 C423.508929,69.5 455.508929,85 463.508929,27 C487.508929,11 554.508929,-35.5 571.508929,63 C547.508929,112 536.675595,151.333333 539.008929,181 C539.008929,181 539.131028,195.35215 547.508929,191.5 C555.886829,187.64785 644.928013,140.866876 738.008929,89.5 C762.675595,64.1666667 789.175595,48.5 817.508929,42.5 C855.508929,46.5 899.342262,65.3333333 949.008929,99 C977.008929,123 991.675595,147.333333 993.008929,172 C945.342262,225 886.842262,251 817.508929,250 C829.508929,230 828.008929,229 852.508929,204 C851.842262,152.666667 831.842262,117.166667 792.508929,97.5 C743.397261,128.250278 697.063928,158.416945 653.508929,188 C596.508929,248 557.008929,266.5 510.508929,289.5 C489.008929,283 481.508929,285 463.508929,263 C382.008929,274.5 365.508929,261 308.008929,248.5 C263.508929,263 142.508929,373.5 5.68434189e-13,244 C6.33928571,210.333333 15.3422619,183.333333 27.0089286,163 L27.0089286,163 L35.5089286,157 L35.5089286,150.5 C71.5089286,59.1666667 131.675595,9 216.008929,-2.55795385e-13 Z M442.008929,99 C442.008929,99 408.508929,105.5 386.508929,112.5 C381.008929,204 436.008929,220 453.508929,223.5 C456.508929,168.833333 456.008929,128 452.008929,101 C452.008929,101 448.675595,100.333333 442.008929,99 Z" id="Combined-Shape"></path>
            </g>
            <path d="M1708,383.749699 C1789.66667,334.083033 1815.16667,271.249699 1784.5,195.249699 L1711,257.249699 C1709.66667,257.583033 1706.16667,257.749699 1700.5,257.749699 C1744,161.249699 1798.85869,96.4886253 1805.5,87.2496994 C1809.92754,81.0904154 1816.26088,80.4237488 1824.5,85.2496994 C1873.5,137.249699 1893.66667,201.916366 1885,279.249699 C1878.5,331.249699 1819,407.249699 1708,383.749699 Z" id="s" stroke="#000189" fill="#000189"></path>
            <g id="o" transform="translate(1907.029199, 32.523893)" stroke="#000189">
                <path d="M169.470801,3.22580645 C181.137468,-3.44086022 197.304134,0.225806452 217.970801,14.2258065 L217.970801,14.2258065 L211.970801,49.7258065 C233.304134,101.392473 245.637468,157.392473 248.970801,217.725806 C211.470801,254.725806 121.970801,354.225806 2.47080085,302.225806 C-3.02919915,279.225806 1.47080085,269.725806 7.97080085,245.725806 C29.3041342,194.725806 76.4708009,122.392473 149.470801,28.7258065 C151.137468,18.3924731 157.804134,9.89247312 169.470801,3.22580645 Z M176.970801,123.225806 C162.970801,133.725806 128.470801,188.725806 121.470801,248.225806 C143.470801,245.225806 172.970801,238.225806 190.470801,201.225806 C199.470801,168.225806 186.970801,141.725806 176.970801,123.225806 Z" id="Combined-Shape" fill="#000189"></path>
                <path d="M121.470801,248.225806 C128.470801,188.725806 162.970801,133.725806 176.970801,123.225806 C186.970801,141.725806 199.470801,168.225806 190.470801,201.225806 C172.970801,238.225806 143.470801,245.225806 121.470801,248.225806 Z" id="Path-5"></path>
            </g>
            <path d="M2149.5,411.248437 C2019.83333,439.249278 1888.66667,455.749699 1756,460.749699 C1694.63559,470.820446 1698.5,485.249699 1694.5,485.249699 C1677.13871,481.6617 1622.5,486.249699 1537.5,504.749699 C1395.83333,511.083033 1110.66667,544.083033 682,603.749699 C587.666667,618.416366 502.5,634.749699 426.5,652.749699 C310.5,659.749699 172.5,683.749699 172.5,683.749699 C245.166667,649.083033 327.5,623.916366 419.5,608.249699 C979.5,490.249699 1556.16667,424.582612 2149.5,411.248437 Z" id="line" stroke="#000189" fill="#000189"></path>
            <text id="GRAND-PICASSO,-CENTR" font-family="Helvetica-Bold, Helvetica" font-size="72" font-weight="bold" letter-spacing="1" fill="#000000">
                <tspan x="777.5" y="716.749699">GRAND PICASSO, CENTRAL JAKARTA</tspan>
            </text>
        </g>
    </g>
</svg>